<svg width="158" height="40" viewBox="0 0 158 40" xmlns="http://www.w3.org/2000/svg">
    <g fill="#FFF" fill-rule="evenodd">
        <path d="M64.242 29.62h83.04V1.211h-83.04zM4.796 12.873c.758-6.008 4.449-8.787 9.1-8.787 4.818 0 8.673 2.985 9.083 8.787H4.796zm17.167 8.232c-1.195 2.606-3.988 4.275-7.247 4.275-5.05 0-9.222-3.647-9.629-8.724h22.535c.213-2.78-.007-6.316-1.318-9.189C24.328 3.137 19.813 0 13.966 0 6.244 0 0 6.28 0 14.938c0 8.644 5.682 14.964 14.833 14.964 6.354 0 10.808-3.718 12.225-8.797h-5.095zM157.234 26.91a2.992 2.992 0 1 0-5.984 0 2.992 2.992 0 0 0 5.984 0M44.892 4.515c-5.333 0-8.917 4.241-8.917 10.554 0 5.692 3.775 10.152 8.594 10.152 5.702 0 9.245-3.87 9.245-10.097 0-6.544-3.418-10.609-8.922-10.609zM31.127 39.962V.766h5.433V3.79C38.656 1.406 41.96 0 45.534 0c7.855 0 13.78 6.455 13.78 15.016 0 8.765-5.789 14.886-14.077 14.886-2.496 0-5.974-.617-8.677-3.479v13.539h-5.433z"/>
    </g>
</svg>
